{"glyphs":{"0":{"ha":1043,"x_min":0,"x_max":1043,"o":"m 0 485 q 43 706 0 611 q 159 865 86 801 q 328 959 232 928 q 528 990 424 990 q 726 959 632 990 q 890 865 819 928 q 1001 706 960 801 q 1043 485 1043 611 q 1001 265 1043 360 q 890 108 960 171 q 726 14 819 46 q 528 -18 632 -18 q 328 14 424 -18 q 159 108 232 46 q 43 265 86 171 q 0 485 0 360 m 144 493 q 164 313 144 399 q 228 161 183 226 q 347 58 274 96 q 529 19 421 19 q 709 57 638 19 q 822 158 781 94 q 881 306 864 222 q 900 481 899 389 q 882 662 900 575 q 821 815 864 749 q 707 919 778 881 q 528 957 636 958 q 346 917 419 956 q 228 816 272 879 q 164 669 183 753 q 144 493 144 585 z "},"1":{"ha":346,"x_min":0,"x_max":346,"o":"m 0 931 l 25 972 l 346 972 l 346 0 l 207 0 l 207 931 l 0 931 z "},"2":{"ha":764,"x_min":0,"x_max":764,"o":"m 764 69 l 724 0 l 0 0 q 42 147 0 79 q 146 278 83 215 q 281 399 208 340 q 417 519 354 457 q 521 647 479 581 q 563 792 563 714 q 536 881 563 843 q 467 939 510 918 q 372 964 425 960 q 265 953 319 968 q 161 903 211 938 q 75 813 111 869 l 33 883 q 130 948 67 921 q 267 987 193 975 q 419 994 342 999 q 559 967 496 990 q 663 901 622 944 q 701 792 703 858 q 658 667 700 725 q 553 555 617 610 q 414 447 490 500 q 269 335 338 393 q 147 211 200 276 q 76 69 93 146 l 764 69 z "},"3":{"ha":779,"x_min":-1,"x_max":778,"o":"m 553 903 l 78 903 l 118 972 l 643 972 l 482 693 q 583 658 531 683 q 679 590 636 632 q 750 490 722 549 q 778 356 778 432 q 735 181 776 253 q 628 65 694 108 q 477 4 561 21 q 307 -6 393 -12 q 140 28 221 0 q -1 104 58 57 l 39 174 q 146 75 83 110 q 276 33 208 40 q 410 42 343 25 q 528 101 476 60 q 610 206 579 142 q 639 354 642 269 q 558 583 636 514 q 336 653 479 653 l 315 653 l 339 694 l 433 694 l 553 903 z "},"4":{"ha":719,"x_min":0,"x_max":732,"o":"m 0 375 q 88 522 44 446 q 167 674 131 597 q 231 826 203 750 q 274 972 258 901 l 403 972 q 342 824 383 901 q 254 673 301 747 q 159 533 207 599 q 76 417 111 467 l 469 417 l 469 694 l 608 694 l 608 417 l 732 417 l 708 375 l 608 375 l 608 0 l 469 0 l 469 375 l 0 375 z "},"5":{"ha":761,"x_min":6,"x_max":760,"o":"m 183 681 q 424 692 321 708 q 599 631 528 676 q 708 519 669 586 q 753 378 746 451 q 736 232 760 304 q 660 103 713 160 q 526 15 607 47 q 336 -12 444 -18 q 157 24 243 -7 q 6 104 71 54 l 46 174 q 177 60 99 97 q 336 25 256 24 q 472 61 414 26 q 565 149 529 96 q 614 269 600 203 q 618 401 628 336 q 574 524 608 467 q 481 615 540 581 q 338 656 422 650 q 142 625 253 661 l 142 972 l 706 972 l 665 903 l 183 903 l 183 681 z "},"6":{"ha":892,"x_min":1,"x_max":892,"o":"m 126 360 q 149 227 126 290 q 213 116 171 164 q 317 40 256 68 q 458 13 379 13 q 593 40 538 13 q 683 114 649 68 q 733 221 717 160 q 749 350 749 282 q 733 482 749 419 q 682 592 717 544 q 592 668 647 640 q 457 694 536 696 q 316 667 378 694 q 213 593 254 639 q 149 487 171 547 q 126 360 126 426 m 125 557 q 197 639 157 607 q 281 690 238 671 q 369 716 324 708 q 457 724 414 724 q 611 701 533 724 q 751 631 689 678 q 853 515 814 585 q 892 353 892 446 q 853 192 892 261 q 751 77 814 124 q 611 8 689 31 q 457 -15 533 -15 q 300 6 381 -15 q 153 79 219 28 q 44 213 86 131 q 1 419 1 296 q 47 691 1 582 q 166 867 93 800 q 331 961 239 933 q 514 987 422 989 q 690 959 606 985 q 831 892 774 933 l 789 821 q 656 917 728 885 q 513 954 585 950 q 374 934 442 958 q 254 860 307 910 q 167 733 201 810 q 125 557 132 657 z "},"7":{"ha":732,"x_min":-1,"x_max":732,"o":"m 628 903 l -1 903 l 39 972 l 732 972 q 713 939 732 972 q 660 849 693 906 q 583 718 626 792 q 492 563 540 644 q 396 397 444 481 q 303 238 347 314 q 224 101 260 163 q 167 0 189 39 l 10 0 l 628 903 z "},"8":{"ha":829,"x_min":-6,"x_max":829,"o":"m 463 642 q 568 701 525 665 q 613 796 611 738 q 605 856 613 826 q 576 908 597 885 q 519 945 556 931 q 428 960 483 960 q 285 933 340 964 q 210 859 229 903 q 210 770 190 815 q 294 699 231 725 q 375 670 332 683 q 463 642 418 657 m 521 621 q 637 572 581 599 q 736 506 693 544 q 804 415 779 467 q 828 292 829 363 q 801 176 828 232 q 723 78 774 121 q 597 10 672 35 q 425 -14 522 -15 q 209 24 297 -15 q 70 124 121 63 q 7 258 19 185 q 20 397 -6 331 q 110 516 46 464 q 278 586 175 568 q 207 621 240 601 q 149 665 174 640 q 111 722 125 690 q 97 794 97 754 q 122 872 97 836 q 189 933 146 907 q 292 973 232 958 q 428 988 353 988 q 534 977 481 988 q 629 944 588 967 q 697 888 671 922 q 722 806 724 853 q 704 731 721 761 q 660 681 688 701 q 597 646 633 660 q 521 621 561 632 m 329 567 q 203 490 253 540 q 131 381 153 440 q 114 258 108 321 q 156 144 119 196 q 259 57 192 92 q 426 19 326 22 q 553 39 497 15 q 646 102 608 63 q 701 192 683 142 q 715 293 719 242 q 669 406 710 361 q 570 479 628 450 q 448 528 513 508 q 329 567 383 547 z "},"9":{"ha":901,"x_min":6,"x_max":896,"o":"m 771 613 q 749 745 771 682 q 684 856 726 808 q 580 932 642 904 q 439 960 518 960 q 304 932 360 960 q 215 858 249 904 q 165 751 181 813 q 149 622 149 690 q 165 490 149 553 q 215 380 181 428 q 306 304 250 332 q 440 278 361 276 q 581 305 519 278 q 685 378 643 332 q 749 485 726 424 q 771 613 771 546 m 772 415 q 700 333 740 365 q 617 281 660 300 q 528 256 574 263 q 440 249 483 249 q 286 272 364 249 q 146 341 208 294 q 44 457 83 388 q 6 619 6 526 q 44 780 6 711 q 146 895 83 849 q 286 965 208 942 q 440 988 364 988 q 597 966 517 988 q 744 893 678 944 q 853 758 811 842 q 896 553 896 675 q 849 281 896 390 q 728 106 803 172 q 560 11 654 39 q 373 -15 467 -17 q 194 13 279 -12 q 53 81 110 39 l 94 151 q 228 55 156 88 q 374 18 300 22 q 516 38 447 14 q 640 113 585 63 q 730 239 694 163 q 772 415 765 315 z "},"\u0000":{"ha":0,"x_min":0,"x_max":0,"o":""},"\r":{"ha":1113,"x_min":0,"x_max":0,"o":""}," ":{"ha":1113,"x_min":0,"x_max":0,"o":""},"B":{"ha":903,"x_min":0,"x_max":903,"o":"m 139 653 l 139 42 l 542 42 q 666 65 621 42 q 733 130 711 89 q 759 226 754 171 q 764 347 764 282 q 759 467 764 411 q 733 564 754 522 q 666 629 711 606 q 542 653 621 653 l 139 653 m 665 686 q 779 645 733 679 q 853 562 825 611 q 892 456 881 513 q 903 347 903 399 q 887 224 903 286 q 831 113 871 163 q 724 31 792 63 q 556 0 657 0 l 0 0 l 0 972 l 542 972 q 628 965 588 972 q 698 940 668 958 q 746 888 728 921 q 764 806 764 856 q 734 729 764 763 q 665 686 704 696 m 528 694 q 581 699 561 694 q 610 715 600 703 q 622 749 619 728 q 625 806 625 771 q 606 902 625 874 q 528 931 586 931 l 139 931 l 139 694 l 528 694 z "},"I":{"ha":139,"x_min":0,"x_max":139,"o":"m 0 0 l 0 972 l 139 972 l 139 0 l 0 0 z "},"A":{"ha":1138,"x_min":0,"x_max":1138,"o":"m 497 778 l 289 417 l 736 417 l 528 778 l 497 778 m 760 375 l 267 375 l 49 0 l 0 0 l 561 972 l 575 972 l 1138 0 l 976 0 l 760 375 z "},"M":{"ha":1557,"x_min":19,"x_max":1558,"o":"m 410 735 l 68 0 l 19 0 l 474 974 l 790 297 l 1104 972 l 1558 0 l 1407 0 l 1065 735 l 1042 735 l 738 81 l 435 735 l 410 735 z "},"М":{"ha":1560,"x_min":19,"x_max":1558,"o":"m 410 735 l 68 0 l 19 0 l 474 974 l 790 297 l 1104 972 l 1558 0 l 1407 0 l 1065 735 l 1042 735 l 738 81 l 435 735 l 410 735 z "},"А":{"ha":1125,"x_min":0,"x_max":1138,"o":"m 497 778 l 289 417 l 736 417 l 528 778 l 497 778 m 760 375 l 267 375 l 49 0 l 0 0 l 561 972 l 575 972 l 1138 0 l 976 0 l 760 375 z "},"В":{"ha":904,"x_min":0,"x_max":903,"o":"m 139 653 l 139 42 l 542 42 q 666 65 621 42 q 733 130 711 89 q 759 226 754 171 q 764 347 764 282 q 759 467 764 411 q 733 564 754 522 q 666 629 711 606 q 542 653 621 653 l 139 653 m 665 686 q 779 645 733 679 q 853 562 825 611 q 892 456 881 513 q 903 347 903 399 q 887 224 903 286 q 831 113 871 163 q 724 31 792 63 q 556 0 657 0 l 0 0 l 0 972 l 542 972 q 628 965 588 972 q 698 940 668 958 q 746 888 728 921 q 764 806 764 856 q 734 729 764 763 q 665 686 704 696 m 528 694 q 581 699 561 694 q 610 715 600 703 q 622 749 619 728 q 625 806 625 771 q 606 902 625 874 q 528 931 586 931 l 139 931 l 139 694 l 528 694 z "},"С":{"ha":965,"x_min":0,"x_max":965,"o":"m 965 90 q 785 9 882 36 q 590 -18 688 -18 q 381 14 486 -18 q 191 108 275 46 q 53 265 107 171 q 0 485 0 360 q 53 706 0 611 q 191 865 107 801 q 381 959 275 928 q 590 990 486 990 q 785 963 688 990 q 965 882 882 936 l 925 811 q 783 919 867 879 q 590 957 700 958 q 399 917 482 956 q 259 816 315 879 q 174 669 203 753 q 144 493 144 585 q 174 313 144 399 q 260 161 203 226 q 400 58 317 96 q 592 19 483 19 q 785 58 703 21 q 925 161 868 96 l 965 90 z "},"Л":{"ha":1135,"x_min":0,"x_max":1138,"o":"m 49 0 l 0 0 l 561 972 l 575 972 l 1138 0 l 976 0 l 528 778 l 497 778 l 49 0 z "},"Р":{"ha":904,"x_min":0,"x_max":903,"o":"m 653 694 q 706 699 686 694 q 735 715 725 703 q 747 749 744 728 q 750 806 750 771 q 747 863 750 839 q 735 902 744 888 q 706 924 725 917 q 653 931 686 931 l 139 931 l 139 694 l 653 694 m 139 653 l 139 0 l 0 0 l 0 972 l 681 972 q 767 963 726 972 q 838 935 807 954 q 885 883 868 915 q 903 806 903 851 q 885 730 903 760 q 838 683 868 700 q 767 660 807 667 q 681 653 726 653 l 139 653 z "},"О":{"ha":1181,"x_min":0,"x_max":1182,"o":"m 0 485 q 53 706 0 611 q 191 865 107 801 q 381 959 275 928 q 590 990 486 990 q 800 959 694 990 q 990 865 906 928 q 1128 706 1075 801 q 1182 485 1182 611 q 1128 265 1182 360 q 990 108 1075 171 q 800 14 906 46 q 590 -18 694 -18 q 381 14 486 -18 q 191 108 275 46 q 53 265 107 171 q 0 485 0 360 m 144 493 q 174 313 144 399 q 260 161 203 226 q 400 58 317 96 q 592 19 483 19 q 783 57 700 19 q 923 158 867 94 q 1008 306 979 222 q 1039 481 1038 389 q 1009 662 1039 575 q 922 815 979 749 q 782 919 865 881 q 590 957 699 958 q 399 917 482 956 q 259 816 315 879 q 174 669 203 753 q 144 493 144 585 z "},"Г":{"ha":804,"x_min":0,"x_max":806,"o":"m 806 972 l 782 931 l 139 931 l 139 0 l 0 0 l 0 972 l 806 972 z "},"П":{"ha":1069,"x_min":0,"x_max":1069,"o":"m 1069 972 l 1069 0 l 931 0 l 931 931 l 139 931 l 139 0 l 0 0 l 0 972 l 1069 972 z "},"Т":{"ha":958,"x_min":0,"x_max":958,"o":"m 958 972 l 935 931 l 544 931 l 542 0 l 417 0 l 417 931 l 0 931 l 24 972 l 958 972 z "},"Е":{"ha":903,"x_min":0,"x_max":903,"o":"m 139 694 l 686 694 l 663 653 l 139 653 l 139 42 l 903 42 l 879 0 l 0 0 l 0 972 l 847 972 l 824 931 l 139 931 l 139 694 z "},"Н":{"ha":1071,"x_min":0,"x_max":1069,"o":"m 139 694 l 931 694 l 931 972 l 1069 972 l 1069 0 l 931 0 l 931 653 l 139 653 l 139 0 l 0 0 l 0 972 l 139 972 l 139 694 z "},"И":{"ha":986,"x_min":0,"x_max":986,"o":"m 829 868 l 97 0 l 0 0 l 0 972 l 139 972 l 139 136 l 157 136 l 861 972 l 986 972 l 986 0 l 847 0 l 847 868 l 829 868 z "},"L":{"ha":774,"x_min":0,"x_max":774,"o":"m 750 0 l 0 0 l 0 972 l 139 972 l 139 42 l 774 42 l 750 0 z "},"Я":{"ha":969,"x_min":-1,"x_max":969,"o":"m 317 931 q 264 924 283 931 q 235 902 244 917 q 222 863 225 888 q 219 806 219 839 q 222 749 219 771 q 235 715 225 728 q 264 699 244 703 q 317 694 283 694 l 831 694 l 831 931 l 317 931 m -1 0 l 376 653 l 289 653 q 203 660 243 653 q 132 683 163 667 q 84 730 101 700 q 67 806 67 760 q 84 883 67 851 q 132 935 101 915 q 203 963 163 954 q 289 972 243 972 l 969 972 l 969 0 l 831 0 l 831 653 l 426 653 l 51 0 l -1 0 z "},"К":{"ha":1004,"x_min":0,"x_max":1004,"o":"m 601 694 l 1004 0 l 843 0 l 467 653 l 139 653 l 139 0 l 0 0 l 0 972 l 139 972 l 139 694 l 544 694 l 707 972 l 761 972 l 601 694 z "},"Ж":{"ha":1675,"x_min":0,"x_max":1675,"o":"m 538 653 l 161 0 l 0 0 l 403 694 l 243 972 l 297 972 l 460 694 l 768 694 l 768 972 l 907 972 l 907 694 l 1215 694 l 1378 972 l 1432 972 l 1272 694 l 1675 0 l 1514 0 l 1138 653 l 907 653 l 907 0 l 768 0 l 768 653 l 538 653 z "},"Ь":{"ha":833,"x_min":0,"x_max":833,"o":"m 139 417 l 604 417 q 779 364 725 417 q 833 208 833 311 q 818 108 833 147 q 768 44 803 68 q 678 10 733 19 q 542 0 622 0 l 0 0 l 0 972 l 139 972 l 139 417 m 139 375 l 139 42 l 528 42 q 608 49 576 42 q 660 76 640 57 q 687 127 679 94 q 694 208 694 160 q 687 289 694 257 q 660 340 679 321 q 608 367 640 360 q 528 375 576 375 l 139 375 z "},"R":{"ha":972,"x_min":0,"x_max":971,"o":"m 139 694 l 653 694 q 706 699 686 694 q 735 715 725 703 q 747 749 744 728 q 750 806 750 771 q 747 863 750 839 q 735 902 744 888 q 706 924 725 917 q 653 931 686 931 l 139 931 l 139 694 m 435 653 l 139 653 l 139 0 l 0 0 l 0 972 l 681 972 q 767 963 726 972 q 838 935 807 954 q 885 883 868 915 q 903 806 903 851 q 885 730 903 760 q 838 683 868 700 q 767 660 807 667 q 681 653 726 653 l 593 653 l 971 0 l 810 0 l 435 653 z "},"Ф":{"ha":1406,"x_min":1,"x_max":1404,"o":"m 772 653 l 772 417 l 1154 417 q 1207 422 1188 417 q 1236 439 1226 426 q 1249 473 1246 451 q 1251 528 1251 494 q 1249 587 1251 563 q 1236 626 1246 611 q 1207 647 1226 640 q 1154 653 1188 653 l 772 653 m 251 653 q 199 647 218 653 q 169 626 179 640 q 157 587 160 611 q 154 528 154 563 q 157 473 154 494 q 169 439 160 451 q 199 422 179 426 q 251 417 218 417 l 633 417 l 633 653 l 251 653 m 633 972 l 772 972 l 772 694 l 1182 694 q 1268 685 1228 694 q 1339 657 1308 676 q 1387 606 1369 638 q 1404 528 1404 574 q 1387 452 1404 482 q 1339 406 1369 422 q 1268 382 1308 389 q 1182 375 1228 375 l 772 375 l 772 0 l 633 0 l 633 375 l 224 375 q 138 382 178 375 q 67 406 97 389 q 19 452 36 422 q 1 528 1 482 q 19 606 1 574 q 67 657 36 638 q 138 685 97 676 q 224 694 178 694 l 633 694 l 633 972 z "},"У":{"ha":918,"x_min":0,"x_max":918,"o":"m 524 375 l 344 375 l 0 972 l 160 972 l 481 417 l 547 417 l 868 972 l 918 972 l 357 0 l 307 0 l 524 375 z "},"Х":{"ha":1107,"x_min":0,"x_max":1106,"o":"m 553 660 q 672 801 622 743 q 753 899 721 860 q 815 972 790 943 l 869 972 l 579 626 q 760 409 668 519 q 931 207 853 299 q 1106 0 1019 100 l 924 0 l 489 518 l 54 0 l 0 0 q 149 176 72 85 q 297 353 215 256 q 463 550 379 450 l 108 972 l 289 972 l 553 660 z "},"Д":{"ha":1233,"x_min":0,"x_max":1233,"o":"m 131 42 l 1011 42 l 586 778 l 556 778 l 131 42 m 82 42 l 619 972 l 633 972 l 1172 42 l 1233 42 l 1233 -112 l 1178 -112 l 1178 0 l 56 0 l 56 -112 l 0 -112 l 0 42 l 82 42 z "},"Б":{"ha":904,"x_min":0,"x_max":903,"o":"m 139 694 l 618 694 q 765 659 710 694 q 851 572 821 624 q 892 459 882 519 q 903 347 903 399 q 887 224 903 286 q 831 113 871 163 q 724 31 792 63 q 556 0 657 0 l 0 0 l 0 972 l 778 972 l 754 931 l 139 931 l 139 694 m 139 653 l 139 42 l 542 42 q 666 65 621 42 q 733 130 711 89 q 759 226 754 171 q 764 347 764 282 q 759 467 764 411 q 733 564 754 522 q 666 629 711 606 q 542 653 621 653 l 139 653 z "},"Ц":{"ha":1086,"x_min":0,"x_max":1086,"o":"m 0 0 l 0 972 l 139 972 l 142 42 l 806 42 l 806 972 l 944 972 l 944 42 l 1086 42 l 1086 -140 l 1031 -140 l 1031 0 l 0 0 z "},"Ш":{"ha":1140,"x_min":0,"x_max":1139,"o":"m 1139 0 l 0 0 l 0 972 l 139 972 l 139 42 l 500 42 l 500 972 l 639 972 l 642 42 l 1000 42 l 1000 972 l 1139 972 l 1139 0 z "},"Щ":{"ha":1281,"x_min":0,"x_max":1281,"o":"m 0 0 l 0 972 l 139 972 l 139 42 l 500 42 l 500 972 l 639 972 l 642 42 l 1000 42 l 1000 972 l 1139 972 l 1139 42 l 1281 42 l 1281 -140 l 1225 -140 l 1225 0 l 0 0 z "},"Ч":{"ha":847,"x_min":0,"x_max":847,"o":"m 229 653 q 54 706 108 653 q 0 861 0 758 l 0 972 l 139 972 l 139 861 q 147 781 139 813 q 174 729 154 749 q 225 702 193 710 q 306 694 257 694 l 708 694 l 708 972 l 847 972 l 847 0 l 708 0 l 708 653 l 229 653 z "},"Э":{"ha":965,"x_min":0,"x_max":965,"o":"m 324 653 l 349 694 l 782 694 q 632 882 735 808 q 375 957 529 956 q 182 919 265 958 q 40 811 99 879 l 0 882 q 181 963 83 936 q 375 990 278 990 q 585 959 479 990 q 774 865 690 928 q 912 706 858 801 q 965 485 965 611 q 912 265 965 360 q 774 108 858 171 q 585 14 690 46 q 375 -18 479 -18 q 181 9 278 -18 q 0 90 83 36 l 40 161 q 180 58 97 96 q 374 19 263 21 q 565 58 482 19 q 706 161 649 96 q 792 313 763 226 q 821 493 821 399 q 797 653 821 575 l 324 653 z "},"Ю":{"ha":1443,"x_min":0,"x_max":1446,"o":"m 139 653 l 139 0 l 0 0 l 0 972 l 139 972 l 139 694 l 311 694 q 407 824 347 768 q 540 916 467 879 q 694 972 613 953 q 854 990 775 990 q 1064 959 958 990 q 1254 865 1169 928 q 1392 706 1339 801 q 1446 485 1446 611 q 1392 265 1446 360 q 1254 108 1339 171 q 1064 14 1169 46 q 854 -18 958 -18 q 644 14 750 -18 q 455 108 539 46 q 317 265 371 171 q 264 485 264 360 q 293 653 264 578 l 139 653 m 408 493 q 438 313 408 399 q 524 161 467 226 q 664 58 581 96 q 856 19 747 19 q 1047 57 964 19 q 1187 158 1131 94 q 1272 306 1243 222 q 1303 481 1301 389 q 1273 662 1303 575 q 1186 815 1243 749 q 1046 919 1129 881 q 854 957 963 958 q 663 917 746 956 q 523 816 579 879 q 438 669 467 753 q 408 493 408 585 z "},"D":{"ha":1007,"x_min":0,"x_max":1008,"o":"m 0 0 l 0 972 l 417 972 q 626 944 521 972 q 817 856 732 915 q 955 703 901 796 q 1008 485 1008 611 q 955 268 1008 360 q 817 117 901 176 q 626 29 732 58 q 417 0 521 0 l 0 0 m 139 939 l 139 38 l 418 38 q 610 72 526 38 q 749 167 693 107 q 835 308 806 228 q 865 481 864 389 q 835 659 865 575 q 749 806 806 743 q 608 904 692 868 q 417 939 525 940 l 139 939 z "},"V":{"ha":925,"x_min":19,"x_max":925,"o":"m 925 972 l 474 1 l 19 974 l 171 974 l 513 239 l 536 239 l 876 972 l 925 972 z "},"N":{"ha":976,"x_min":0,"x_max":976,"o":"m 921 149 l 935 149 l 935 972 l 976 972 l 976 0 l 865 0 l 83 931 l 42 931 l 42 0 l 0 0 l 0 972 l 231 972 l 921 149 z "},"З":{"ha":967,"x_min":-1,"x_max":958,"o":"m 958 397 q 908 195 957 276 q 777 65 858 114 q 593 -1 696 17 q 384 -10 490 -18 q 177 27 278 -3 q -1 104 76 57 l 39 174 q 184 69 101 107 q 354 22 267 31 q 526 32 442 13 q 677 98 611 51 q 783 219 743 144 q 819 396 822 294 q 791 538 818 486 q 724 615 764 589 q 636 647 683 640 q 549 653 589 653 l 322 653 l 346 694 l 604 694 q 676 726 651 694 q 701 806 701 757 q 669 876 701 843 q 583 928 636 908 q 463 956 531 949 q 326 951 396 963 q 190 906 256 939 q 75 813 125 872 l 33 883 q 178 954 94 928 q 352 990 263 981 q 529 990 442 999 q 686 958 617 982 q 798 896 756 935 q 840 806 840 857 q 814 729 840 763 q 728 686 788 696 q 806 665 765 682 q 881 615 847 649 q 936 528 914 582 q 958 397 958 475 z "},"Ы":{"ha":1085,"x_min":0,"x_max":1082,"o":"m 139 417 l 604 417 q 779 364 725 417 q 833 208 833 311 q 818 108 833 147 q 768 44 803 68 q 678 10 733 19 q 542 0 622 0 l 0 0 l 0 972 l 139 972 l 139 417 m 139 375 l 139 42 l 528 42 q 608 49 576 42 q 660 76 640 57 q 687 127 679 94 q 694 208 694 160 q 687 289 694 257 q 660 340 679 321 q 608 367 640 360 q 528 375 576 375 l 139 375 m 943 0 l 943 972 l 1082 972 l 1082 0 l 943 0 z "},"Ъ":{"ha":957,"x_min":0,"x_max":958,"o":"m 264 375 l 264 42 l 653 42 q 733 49 701 42 q 785 76 765 57 q 812 127 804 94 q 819 208 819 160 q 812 289 819 257 q 785 340 804 321 q 733 367 765 360 q 653 375 701 375 l 264 375 m 125 931 l 0 931 l 24 972 l 264 972 l 264 417 l 729 417 q 904 364 850 417 q 958 208 958 311 q 943 108 958 147 q 893 44 928 68 q 803 10 858 19 q 667 0 747 0 l 125 0 l 125 931 z "},"Й":{"ha":989,"x_min":1,"x_max":988,"o":"m 653 1111 l 628 1069 l 365 1069 l 390 1111 l 653 1111 m 831 868 l 99 0 l 1 0 l 1 972 l 140 972 l 140 136 l 158 136 l 863 972 l 988 972 l 988 0 l 849 0 l 849 868 l 831 868 z "},"E":{"ha":907,"x_min":0,"x_max":903,"o":"m 139 694 l 686 694 l 663 653 l 139 653 l 139 42 l 903 42 l 879 0 l 0 0 l 0 972 l 847 972 l 824 931 l 139 931 l 139 694 l 139 694 z "},"F":{"ha":901,"x_min":0,"x_max":903,"o":"m 139 694 l 742 694 l 718 653 l 139 653 l 139 0 l 0 0 l 0 972 l 903 972 l 879 931 l 139 931 l 139 694 l 139 694 z "},"T":{"ha":960,"x_min":0,"x_max":958,"o":"m 958 972 l 935 931 l 544 931 l 542 0 l 417 0 l 417 931 l 0 931 l 24 972 l 958 972 l 958 972 z "},"K":{"ha":1004,"x_min":0,"x_max":1004,"o":"m 601 694 l 1004 0 l 843 0 l 467 653 l 139 653 l 139 0 l 0 0 l 0 972 l 139 972 l 139 694 l 544 694 l 707 972 l 761 972 l 601 694 z "},"H":{"ha":1069,"x_min":0,"x_max":1069,"o":"m 139 694 l 931 694 l 931 972 l 1069 972 l 1069 0 l 931 0 l 931 653 l 139 653 l 139 0 l 0 0 l 0 972 l 139 972 l 139 694 l 139 694 z "},"G":{"ha":965,"x_min":0,"x_max":965,"o":"m 826 653 l 731 653 l 754 694 l 965 694 l 965 90 q 785 9 882 36 q 590 -18 688 -18 q 381 14 486 -18 q 191 108 275 46 q 53 265 107 171 q 0 485 0 360 q 53 706 0 611 q 191 865 107 801 q 381 959 275 928 q 590 990 486 990 q 785 963 688 990 q 965 882 882 936 l 925 811 q 783 919 867 879 q 590 957 700 958 q 399 917 482 956 q 259 816 315 879 q 174 669 203 753 q 144 493 144 585 q 174 313 144 399 q 260 161 203 226 q 400 58 317 96 q 592 19 483 19 q 719 35 661 19 q 826 79 778 51 l 826 653 z "},"P":{"ha":903,"x_min":0,"x_max":903,"o":"m 653 694 q 706 699 686 694 q 735 715 725 703 q 747 749 744 728 q 750 806 750 771 q 747 863 750 839 q 735 902 744 888 q 706 924 725 917 q 653 931 686 931 l 139 931 l 139 694 l 653 694 m 139 653 l 139 0 l 0 0 l 0 972 l 681 972 q 767 963 726 972 q 838 935 807 954 q 885 883 868 915 q 903 806 903 851 q 885 730 903 760 q 838 683 868 700 q 767 660 807 667 q 681 653 726 653 l 139 653 z "},"W":{"ha":1557,"x_min":19,"x_max":1558,"o":"m 1510 974 l 1558 974 l 1104 0 l 788 676 l 474 1 l 19 974 l 171 974 l 513 239 l 536 239 l 840 893 l 1143 239 l 1168 239 l 1510 974 z "},"Y":{"ha":831,"x_min":6,"x_max":831,"o":"m 781 972 l 831 972 l 493 386 l 493 0 l 354 0 l 354 368 l 6 972 l 167 972 l 474 440 l 781 972 z "},"X":{"ha":1106,"x_min":0,"x_max":1106,"o":"m 553 660 q 672 801 622 743 q 753 899 721 860 q 815 972 790 943 l 869 972 l 579 626 q 760 409 668 519 q 931 207 853 299 q 1106 0 1019 100 l 924 0 l 489 518 l 54 0 l 0 0 q 149 176 72 85 q 297 353 215 256 q 463 550 379 450 l 108 972 l 289 972 l 553 660 z "},"Q":{"ha":1182,"x_min":0,"x_max":1182,"o":"m 810 17 q 701 -10 757 -1 q 590 -18 644 -18 q 381 14 486 -18 q 191 108 275 46 q 53 265 107 171 q 0 485 0 360 q 53 706 0 611 q 191 865 107 801 q 381 959 275 928 q 590 990 486 990 q 800 959 694 990 q 990 865 906 928 q 1128 706 1075 801 q 1182 485 1182 611 q 1156 327 1182 399 q 1085 199 1131 256 q 980 101 1040 143 q 851 32 919 58 l 951 -139 l 925 -185 l 810 17 m 603 374 l 628 417 l 825 78 q 983 247 929 139 q 1039 481 1038 354 q 1009 662 1039 575 q 922 815 979 749 q 782 919 865 881 q 590 957 699 958 q 399 917 482 956 q 259 816 315 879 q 174 669 203 753 q 144 493 144 585 q 174 313 144 399 q 260 161 203 226 q 400 58 317 96 q 592 19 483 19 q 786 58 700 19 l 603 374 z "},"J":{"ha":810,"x_min":1,"x_max":810,"o":"m 669 972 l 810 972 l 810 411 q 767 207 810 290 q 655 74 724 124 q 498 4 586 24 q 320 -10 410 -15 q 147 24 231 -4 q 1 97 63 51 l 43 168 q 158 72 93 108 q 294 26 224 36 q 431 33 364 17 q 551 97 499 50 q 637 222 604 144 q 669 411 669 300 l 669 972 z "},"Z":{"ha":836,"x_min":0,"x_max":836,"o":"m 0 931 l 25 972 l 836 972 l 186 42 l 836 42 l 813 0 l 0 0 l 651 931 l 0 931 z "},"S":{"ha":956,"x_min":-1,"x_max":958,"o":"m 200 806 q 233 733 200 758 q 318 694 265 708 q 439 673 371 681 q 578 656 507 665 q 717 627 649 646 q 838 573 785 608 q 925 479 892 538 q 958 331 958 421 q 909 160 958 229 q 779 51 860 92 q 596 -5 699 10 q 386 -11 493 -19 q 178 27 279 -3 q -1 104 76 57 l 39 174 q 207 71 118 107 q 383 26 296 35 q 551 35 471 18 q 691 92 631 53 q 787 193 751 132 q 822 332 822 254 q 790 472 822 418 q 703 557 757 525 q 581 605 649 589 q 441 630 513 621 q 301 647 369 639 q 180 672 233 654 q 94 719 126 689 q 61 806 61 750 q 103 896 61 857 q 215 958 146 935 q 372 990 285 982 q 549 990 460 999 q 723 954 639 981 q 868 883 807 928 l 826 813 q 711 906 776 872 q 576 951 646 939 q 438 956 506 963 q 318 928 371 949 q 233 876 265 908 q 200 806 200 843 z "},"O":{"ha":1186,"x_min":0,"x_max":1182,"o":"m 0 485 q 53 706 0 611 q 191 865 107 801 q 381 959 275 928 q 590 990 486 990 q 800 959 694 990 q 990 865 906 928 q 1128 706 1075 801 q 1182 485 1182 611 q 1128 265 1182 360 q 990 108 1075 171 q 800 14 906 46 q 590 -18 694 -18 q 381 14 486 -18 q 191 108 275 46 q 53 265 107 171 q 0 485 0 360 m 144 493 q 174 313 144 399 q 260 161 203 226 q 400 58 317 96 q 592 19 483 19 q 783 57 700 19 q 923 158 867 94 q 1008 306 979 222 q 1039 481 1038 389 q 1009 662 1039 575 q 922 815 979 749 q 782 919 865 881 q 590 957 699 958 q 399 917 482 956 q 259 816 315 879 q 174 669 203 753 q 144 493 144 585 z "},".":{"ha":461,"x_min":165,"x_max":332,"o":"m 165 83 q 189 142 165 117 q 249 167 213 167 q 307 142 282 167 q 332 83 332 117 q 307 24 332 47 q 249 0 282 0 q 189 24 213 0 q 165 83 165 47 z "},"!":{"ha":482,"x_min":160,"x_max":326,"o":"m 160 83 q 183 24 160 47 q 243 0 207 0 q 301 24 276 0 q 326 83 326 47 q 301 142 326 117 q 243 167 276 167 q 183 142 207 167 q 160 83 160 117 m 215 250 l 160 972 l 326 972 l 271 250 l 215 250 z "},"?":{"ha":743,"x_min":39,"x_max":708,"o":"m 263 83 q 286 24 263 47 q 346 0 310 0 q 404 24 379 0 q 429 83 429 47 q 404 142 429 117 q 346 167 379 167 q 286 142 310 167 q 263 83 263 117 m 324 258 q 294 381 289 328 q 326 476 299 433 q 394 553 353 518 q 474 625 435 589 q 540 701 513 661 q 568 792 568 742 q 542 881 568 843 q 473 939 515 918 q 378 964 431 960 q 271 953 325 968 q 167 903 217 938 q 81 813 117 869 l 39 883 q 135 948 72 921 q 273 987 199 975 q 424 994 347 999 q 565 967 501 990 q 668 901 628 944 q 707 792 708 858 q 676 672 706 725 q 602 575 646 619 q 509 492 558 531 q 422 417 460 454 q 366 341 385 379 q 365 258 347 303 l 324 258 z "},"[":{"ha":799,"x_min":196,"x_max":585,"o":"m 307 42 l 585 42 l 561 0 l 196 0 l 196 972 l 585 972 l 561 931 l 307 931 l 307 42 z "},"]":{"ha":838,"x_min":224,"x_max":613,"o":"m 501 42 l 501 931 l 224 931 l 247 972 l 613 972 l 613 0 l 224 0 l 247 42 l 501 42 z "},"-":{"ha":1056,"x_min":296,"x_max":697,"o":"m 296 514 l 319 556 l 697 556 l 672 514 l 296 514 z "},"/":{"ha":986,"x_min":215,"x_max":825,"o":"m 264 0 l 215 0 l 776 972 l 825 972 l 264 0 z "},"C":{"ha":965,"x_min":0,"x_max":965,"o":"m 965 90 q 785 9 882 36 q 590 -18 688 -18 q 381 14 486 -18 q 191 108 275 46 q 53 265 107 171 q 0 485 0 360 q 53 706 0 611 q 191 865 107 801 q 381 959 275 928 q 590 990 486 990 q 785 963 688 990 q 965 882 882 936 l 925 811 q 783 919 867 879 q 590 957 700 958 q 399 917 482 956 q 259 816 315 879 q 174 669 203 753 q 144 493 144 585 q 174 313 144 399 q 260 161 203 226 q 400 58 317 96 q 592 19 483 19 q 785 58 703 21 q 925 161 868 96 l 965 90 z "},"U":{"ha":1038,"x_min":0,"x_max":1038,"o":"m 1038 453 q 994 238 1038 326 q 881 92 951 149 q 719 9 810 36 q 536 -19 629 -18 q 338 5 435 -22 q 167 90 242 32 q 46 239 92 149 q 0 453 0 329 l 0 972 l 139 972 l 139 453 q 172 256 139 338 q 259 123 204 175 q 386 45 314 71 q 536 18 458 19 q 701 40 619 15 q 849 117 783 64 q 956 253 915 169 q 997 453 997 336 l 996 972 l 1038 972 l 1038 453 z "}}}
